<?xml version="1.0" encoding="utf-8"?>
<!-- Generator: Adobe Illustrator 21.0.0, SVG Export Plug-In . SVG Version: 6.00 Build 0)  -->
<svg version="1.1" id="Layer_1" xmlns="http://www.w3.org/2000/svg" xmlns:xlink="http://www.w3.org/1999/xlink" x="0px" y="0px"
	 viewBox="0 0 569 182" style="enable-background:new 0 0 569 182;" xml:space="preserve">
<style type="text/css">
	.st0{fill:#231F20;}
</style>
<path class="st0" d="M218.1,85.6c-12.7-2.8-19.1,1.5-29.6,8c-14.1,8.7,0.6-17.4,0.5-5.5c0,4.3-1.1,8.8-2,13
	c-0.7,3.5-1.8,6.9-2.8,10.3c-0.6,1.9-1.3,3.8-2,5.6c-2.6,2.9-1.9,4.3,2.1,4.2c-0.9-12.6,13.9-29.4,20.5-39
	c6.7-9.7,13.9-19.2,21.2-28.4c1.9-2.4-0.4-5.9-3.4-4.3c-11.8,6.3-22.3,16-32.6,24.3c-12.7,10.3-24.8,21.3-37.3,31.7
	c-1,0.9-2.1,1.7-3.2,2.5c-4.3,3.3,3.9-1.9,1.1,4.1c1.1-2.2,2.9-4.3,4.4-6.2c10.3-13,21.7-25.2,32.9-37.5c6.4-7,15.7-20.8,23.4-24.8
	c-1.4-1-2.7-2.1-4.1-3.1c-0.6,2.7-9.2,9.6-12,12.1c-11.7,10.5-25.6,18.8-39.6,25.8c-10.1,5.1-32.1,15.9-42.7,6.9
	c-19.4-16.3,30.6-49.1,19.1-10.9c-3.6,12.1-13,24-22,32.8c-4.2,4.1-2.9,5.6,0.2,0.5c4.7-7.6,11-14.3,16.8-21
	c16.9-19.4,42.8-40,52.7-64.4c4.6-11.3-14.2-2.2-16.4-0.9c-27,15.4-49.8,38-73.2,58C77.9,90.2,65,100.8,50.6,109
	c-5.9,3.4-12.2,5.9-19,6c-6,0-11.8-1.3-17.3-3.8c-16.5-7.3,6.8-25,10.7-27.7C44.2,70.1,77,72.9,99.1,76.2c3.5,0.5,5-4.8,1.5-5.3
	c-24.5-3.6-52.1-4.3-75,6.1c-23.4,10.6-31.9,40.6,0.3,43.2c31,2.5,58.9-28.4,80.4-47c16.1-14,32.1-28.2,49.7-40.3
	c5.9-4,12.1-8.3,18.8-10.8c-1.5,0.6-9.1,12.4-12.1,16.1c-14.9,18.6-31.6,35.5-47,53.7c-3.8,4.5-15.2,15.3-13.3,22.2
	c3.3,11.9,28.2-23.8,29.5-26.1c7.4-12.6,13.2-44.7-12.1-36.2c-13.9,4.7-23,34.7-5.8,40.7c19.5,6.8,44.3-8.3,60.3-17.8
	c9.9-5.9,35.5-20,38.4-32.6c0.5-2.4-1.9-4.3-4.1-3.1c-11.1,5.8-21.5,22.3-29.8,31.4c-11.1,12.2-24.6,24.7-32.9,39
	c-1.3,2.2-0.7,5.6,2.4,5.5c4.7-0.2,10.6-7.2,13.7-9.9c19.7-17.1,40.1-38.1,63.4-50.6c-1.1-1.4-2.2-2.9-3.4-4.3
	c-9.4,11.7-18.3,23.8-26.7,36.1c-4.2,6.2-22.5,29.3-15.9,38.2c0.9,1.2,2.4,1.9,3.8,1c11-7.2,20.9-55.6-2.8-50.7
	c-11.3,2.4-10.3,14.3-4.5,21c3.3,3.8,7.9,4.6,12.4,3.8c11.3-2.1,13.8-11.7,28.1-8.6C220.1,91.7,221.5,86.4,218.1,85.6L218.1,85.6
	 M243.3,91.9c-10.8-8.7-28.8,6.4-33.6,16.1c-1.5,3.1-0.5,6,2.7,7.2c8,2.9,23.5-11.6,28.5-15.3c-1.1-1.4-2.2-2.9-3.4-4.3
	c-2.9,2.5-26,26.7-8,22c10.1-2.6,19.7-10.3,28.8-15.3c15.5-8.4-6,9.7-4.3,16.3c0.5,1.8,2.5,2.4,4.1,1.7c1.9-1,2.7-2.8,3.7-4.6
	c0.8-1.7,1.7-3.4,2.7-5.1c5.9-10.8,10.8,5.7,11.2,5.4c-2.6,2.5,1.3,6.4,3.9,3.9c4.9-4.7,13.8-8.3,16.6-14.6c-1,2.2-2.8,4-2.7,6.5
	c0.1,1.5,1.2,2.8,2.8,2.8c11.1,0,19.6-13.4,32.4-11.8c-0.7-1.6-1.3-3.2-2-4.7c-4.8,4.2-16.6,19.8-1.4,18.8
	c13.6-0.9,30-17.1,40.2-24.8c16.6-12.5,33.1-25.6,47.8-40.3c1.5-1.5,13.3-15.6,3-14c-12.3,1.8-26.7,18.2-35.4,25.9
	c-12.7,11.3-29.4,24.7-36.2,40.8c-5,12,12.9,7.7,17.6,5.8c19.6-7.8,38.2-21.1,55-33.8c-1.1-1.4-2.2-2.9-3.4-4.3
	c-7.7,6.7-35.1,26.2-31.8,38.5c4.1,15,38.7-10.7,43.7-14.5c-1.1-1.4-2.2-2.9-3.4-4.3c-4.2,4.2-16.9,15.4-12.8,22.5
	c1.2,2,4.1,3.3,6.4,2.7c2.2-0.6,3.6-1.9,5.3-3.3c1.6-1.6,3-3.3,4.5-5c3.1-4.9,7.9-5.3,14.3-1.3c-2.4,1.2-1.4,5.4,1.4,5.2
	c3.4-0.2,16.7-1.5,16.9,3.4c0.1,1.6,0.5,3,2,3.9c8,4.7,25.6-1,34.1-1.9c13.2-1.4,81.5,0.5,55.9,29.1c-7.4,8.3-18.8,5.8-27.9,10
	c-6.4,3-11.7,10.3-18.5,11.5c-3.5,0.6-2,6,1.5,5.3c9.2-1.7,14.5-10.4,23.7-13.2c11-3.3,19.3-3.3,27.4-12.5
	c13.1-14.7-4.9-28.6-17.4-33.4c-21.8-8.5-48-1.5-70.3,0.3c-8.5,0.7-2-2.2-7.8-5.4c-6-3.3-13.1-3.3-19.7-2.8c0.5,1.7,0.9,3.4,1.4,5.2
	c10.6-5.6,11.6-17.8-3.9-16.8c-7.7,0.5-12,3.9-17.2,9.5c-10.5,11.4-0.3-4.5,4.4-9.1c2.2-2.2-0.8-6.3-3.4-4.3
	c-4.4,3.3-9,6.4-13.7,9.3c-5.7,3.6-27.5,13.7-16.5,0c7.2-9.1,16.2-17,25-24.6c2.4-2-0.8-6.2-3.4-4.3c-9.1,6.8-18.6,13.1-28.2,19.2
	c-6.5,4.1-13.3,8-20.1,11.5c-1.9,1-19.3,9.2-15,1.2c11.5-21.8,38-41.5,57.6-55.6c2.5-1.8,5.2-3.8,8.2-4.8c-3,1.1-1.6-2.1-4.7,1.6
	c-1.5,1.7-3.1,3.2-4.6,4.8c-9.5,9.5-20,17.9-30.4,26.3c-11.9,9.6-24.2,18.8-37,27.2c-7.8,5.2-24.1,11.5-9.6-1.2c2-1.8,0.2-4.4-2-4.7
	c-7.5-1-14.9,2.5-21.5,5.6c-3.1,1.8-6.2,3.6-9.2,5.5c0.6,3.2,1.3,3.6,2.2,1.2c1-1.8,1.8-3.3,2-5.4c0.1-0.9-0.6-2-1.4-2.4
	c-7.7-3.8-19.9,9.1-25,14.1c1.3,1.3,2.6,2.6,3.9,3.9c6.7-6.5,7.1-22.7-6.4-21.7c-6.6,0.5-10.1,4.1-13.6,9.6
	c-0.9,1.7-1.8,3.4-2.7,5.1c-2.1,2.3-1.1,3.6,2.9,3.9c3-5.5,7.5-9.8,10.3-15.5c5.1-10.5-7-7.3-11.9-5c-9.1,4.3-17.4,10-26.4,14.5
	c-10.1,5.1,6.6-8.6,9.6-11.1c2.4-2-0.8-6.2-3.4-4.3c-3.7,2.7-21.2,10.7-22.9,14.3c3.2-6.4,17.8-18.8,24.2-13.6
	C242.1,98,246,94.1,243.3,91.9L243.3,91.9 M367.3,67.5C367.6,67.2,366.8,68.2,367.3,67.5c0.4-0.5,0.8-0.9,1.2-1.3
	c0.6-0.7,1.6-1.6,2.6-1.6c3.5-0.2,3.6-5.8,0-5.5c-3.6,0.2-6.5,2.8-8.5,5.7c-0.9,1.2-0.2,3.1,1,3.8C364.9,69.4,366.4,68.8,367.3,67.5
	L367.3,67.5 M245.1,89.7c37.5-5.2,75.4-8.6,113.2-10.2c29.6-1.2,59.2,0.6,88.8,0.8c14.8,0.1,29.6,0.1,44.5,0.4
	c7.6,0.2,22.6-1.5,28.8,3.9c2.7,2.3,6.6-1.6,3.9-3.9c-10.6-9.2-35.2-5.6-47.7-5.8c-34.1-0.4-68.3-1.8-102.4-1.4
	c-43.6,0.5-87.4,4.8-130.5,10.8C240.1,84.9,241.6,90.2,245.1,89.7L245.1,89.7z"/>
</svg>
