<?xml version="1.0" encoding="utf-8"?>
<!-- Generator: Adobe Illustrator 21.0.0, SVG Export Plug-In . SVG Version: 6.00 Build 0)  -->
<svg version="1.1" id="Layer_1" xmlns="http://www.w3.org/2000/svg" xmlns:xlink="http://www.w3.org/1999/xlink" x="0px" y="0px"
	 viewBox="0 0 569 182" style="enable-background:new 0 0 569 182;" xml:space="preserve">
<style type="text/css">
	.st0{fill:#231F20;}
</style>
<path class="st0" d="M363.6,68.6c1.3,0.8,2.8,0.2,3.7-1.1c0.4-0.5,0.8-0.9,1.2-1.3c0.6-0.7,1.6-1.6,2.6-1.6c3.5-0.2,3.6-5.8,0-5.5
	c-3.6,0.2-6.5,2.8-8.5,5.7C361.7,66,362.4,67.9,363.6,68.6z"/>
<path class="st0" d="M216.4,90.9c3.7,0.8,5.1-4.5,1.7-5.3c-6.7-1.5-11.6-1-16.3,0.8c1.1-1.5,2.1-2.9,3-4.2
	c6.7-9.7,13.9-19.2,21.2-28.4c1.9-2.4-0.4-5.9-3.4-4.3c-11.8,6.3-22.3,16-32.6,24.3c-0.6,0.5-1.3,1-1.9,1.5
	c-1.6-0.8-3.5-1.1-5.7-0.9c1.8-2,3.7-4,5.5-6c1.1-1.3,2.4-2.7,3.7-4.3c9.7-6.5,19.4-14.5,21.1-22c0.5-2.4-1.9-4.3-4.1-3.1
	c-6.8,3.5-13.3,11.1-19.3,18.5c-10.4,8.2-22,15-33.7,20.9c-5.5,2.8-14.7,7.3-23.5,9.3c1.7-3,3.3-7,4.5-11.3
	c15.9-16.4,35-34,43.2-54.1c4.6-11.3-14.2-2.2-16.4-0.9c-14.5,8.3-27.8,18.7-40.7,29.6c-0.9,0.2-1.8,0.5-2.8,0.8
	c-4.8,1.6-9,6.3-11.8,11.9c-2.7,2.4-5.3,4.7-8,7.1c-24.3-3.5-51.7-4.1-74.4,6.2c-23.4,10.6-31.9,40.6,0.3,43.2
	c30.3,2.4,57.6-27,78.9-45.7c-0.9,7.8,1.5,15.3,9.2,18c0.3,0.1,0.6,0.2,0.9,0.3c-4.4,4.9-14.3,14.8-12.5,21.3
	c2.5,9.1,17.7-9.7,25.3-20c16.4-1.2,34.2-12,46.6-19.4c0.4-0.2,0.7-0.4,1.2-0.7c-10.4,11.1-22.1,22.5-29.6,35.4
	c-1.3,2.2-0.7,5.6,2.4,5.5c4.7-0.2,10.6-7.2,13.7-9.9c4.1-3.6,8.3-7.3,12.5-11.2c0.4,0.7,0.9,1.3,1.4,1.9c2.7,3.2,6.4,4.2,10.1,4.1
	c-5.5,8.8-10.6,19.3-6.6,24.6c0.9,1.2,2.4,1.9,3.8,1c5.2-3.4,10.2-16.2,11.5-28.1C201.3,93.8,205.2,88.5,216.4,90.9z M50.6,109
	c-5.9,3.4-12.2,5.9-19,6c-6,0-11.8-1.3-17.3-3.8c-16.5-7.3,6.8-25,10.7-27.7C42.9,71,72.7,72.6,94.6,75.6c-1.5,1.3-3,2.6-4.5,3.8
	C77.9,90.2,65,100.8,50.6,109z M174.8,22.1c-1.5,0.6-9.1,12.4-12.1,16.1c-7.8,9.8-16.2,19.1-24.5,28.3c0.4-6.9-1.2-13.1-6.3-15.3
	c7.8-6.4,15.8-12.6,24.1-18.4C161.9,28.9,168.1,24.6,174.8,22.1z M112.9,85.3c-5.3-4.4-5.4-10.1-3.1-15.2
	c5.1-4.4,10.2-8.8,15.3-13.2c6.2-1.5,11,2.3,7.3,16c-4.6,5.1-9.1,10.1-13.6,15.3C116.6,87.7,114.6,86.8,112.9,85.3z M111.5,105.7
	c2.7-4.1,5.9-8,9.1-11.7c0.3,0,0.6,0.1,0.9,0.1C118.4,98.3,115,102.2,111.5,105.7z M161.3,98.2c3.4-4.1,6.9-8.1,10.5-12.1
	c0.1,0.9,0.2,1.7,0.5,2.6C168.6,92,164.9,95.1,161.3,98.2z M212.5,62.3c-5.9,7.9-11.7,15.8-17.2,23.9c-0.2,0.3-0.4,0.6-0.6,0.9
	c-0.4-3.4-1.4-6.4-2.9-8.6C198.5,72.7,205.4,67.2,212.5,62.3z M189,88.1c0,1.8-0.2,3.7-0.5,5.5c0,0,0,0,0,0
	C174.4,102.3,189.1,76.2,189,88.1z"/>
<path class="st0" d="M553.3,129.3c0.3,0.2,0.6,0.4,0.9,0.7c3.2,1.8,5.5,4.8,6.9,8.2c0.4-10.6-12.4-19.6-21.9-23.3
	c-21.8-8.5-48-1.5-70.3,0.3c-8.5,0.7-2-2.2-7.8-5.4c-3.7-2.1-7.9-2.8-12.1-3c3.8-5.7,1.3-12.1-10.1-11.4c-7.7,0.5-12,3.9-17.2,9.5
	c-10.1,10.9-1.1-3.2,3.8-8.5c0.1-0.1,0.2-0.2,0.3-0.2c0,0,0,0,0-0.1c0.1-0.1,0.2-0.2,0.3-0.3c2.2-2.2-0.8-6.3-3.4-4.3
	c-4.4,3.3-9,6.4-13.7,9.3c-5.7,3.6-27.5,13.7-16.5,0c6.1-7.7,13.5-14.6,21-21.2c11.2,0.3,22.4,0.6,33.6,0.7
	c14.8,0.1,29.6,0.1,44.5,0.4c7.6,0.2,22.6-1.5,28.8,3.9c2.7,2.3,6.6-1.6,3.9-3.9c-10.6-9.2-35.2-5.6-47.7-5.8
	c-19.4-0.2-38.9-0.8-58.3-1.1c-0.4-1.7-2.4-3.1-4.2-1.9c-0.8,0.6-1.6,1.2-2.4,1.7c-7.5-0.1-14.9-0.2-22.4-0.2
	c8.3-6.9,16.4-14,24-21.6c1.5-1.5,13.3-15.6,3-14C404,39.6,389.6,56,380.9,63.7c-3.5,3.1-7.3,6.4-11.2,9.9
	c-42.1,0.7-84.4,4.9-126,10.7c-3.6,0.6-2.1,5.9,1.4,5.4c37.5-5.2,75.4-8.6,113.2-10.2c1.8-0.1,3.5-0.1,5.3-0.2
	c-5.8,5.7-11.3,11.8-15.3,18.3c-2.8,1.9-5.5,3.8-8.4,5.7c-7.8,5.2-24.1,11.5-9.6-1.2c2-1.8,0.2-4.4-2-4.7c-7.5-1-14.9,2.5-21.5,5.6
	c-1.8,1-3.6,2.1-5.4,3.2c0.2-0.6,0.3-1.2,0.4-1.9c0.1-0.9-0.6-2-1.4-2.4c-4.7-2.3-11.1,1.6-16.6,6.2c-0.1-5.5-3.3-10.4-10.9-9.9
	c-0.7,0.1-1.4,0.2-2.1,0.3c1.6-7-8.6-4.2-12.9-2.2c-9.1,4.3-17.4,10-26.4,14.5c-9.5,4.8,4.7-7.1,8.9-10.6c0.2-0.1,0.3-0.2,0.5-0.3
	c0,0,0,0,0,0c0.1-0.1,0.2-0.1,0.2-0.2c1.1-0.9,1-2.2,0.5-3.2c2.2-0.5,3.7-3,1.7-4.6c-10.8-8.7-28.8,6.4-33.6,16.1
	c-1.5,3.1-0.5,6,2.7,7.2c3,1.1,7.1-0.3,11.3-2.7c-2.1,4.2-1.5,7,5.8,5.1c10.1-2.6,19.7-10.3,28.8-15.3c15.5-8.4-6,9.7-4.3,16.3
	c0.5,1.8,2.5,2.4,4.1,1.7c1.9-1,2.7-2.8,3.7-4.6c0.8-1.7,1.7-3.4,2.7-5.1c5.5-10.1,10.1,3.6,11.1,5.2c-0.1,0.1-0.1,0.1-0.2,0.2
	l0.2,0.2c-2.3,2.5,1.5,6.2,4,3.7c4.6-4.4,12.6-7.8,15.9-13.3c-1,1.7-2.1,3.2-2,5.2c0.1,1.5,1.2,2.8,2.8,2.8c9.1,0,16.4-9,25.8-11.3
	c-4.5,6.1-8,14.4,3.2,13.6c5.9-0.4,12.4-3.7,18.6-7.9c1.1,6.2,14.4,2.9,18.4,1.3c8.1-3.2,16.1-7.4,23.8-12.1c-3.2,4.5-5,8.8-4,12.5
	c2.5,9.1,16.2,3.2,27.7-3.7c-1.2,2.6-1.5,5.2-0.2,7.4c1.2,2,4.1,3.3,6.4,2.7c2.2-0.6,3.6-1.9,5.3-3.3c1.6-1.6,3-3.3,4.5-5
	c3.1-4.9,7.9-5.3,14.3-1.3c-2.4,1.2-1.4,5.4,1.4,5.2c3.4-0.2,16.7-1.5,16.9,3.4c0.1,1.6,0.5,3,2,3.9c8,4.7,25.6-1,34.1-1.9
	C504.1,117.1,542.7,117.8,553.3,129.3z M214.8,109.7c3-6,16.1-17.3,23-14.3c0,0,0,0-0.1,0C234,98.1,216.5,106.1,214.8,109.7z
	 M408.4,48.2c0.5-0.4,1-0.7,1.5-1.1c-0.9,0.9-1.8,1.8-2.6,2.7c-8.5,8.5-17.8,16.1-27.1,23.7c-1.3,0-2.7,0-4,0
	C386.8,63.9,398.5,55.3,408.4,48.2z M370.1,79.2c1,0,2,0,3,0c-3.6,2.9-7.2,5.7-10.9,8.4C364.7,84.7,367.3,81.9,370.1,79.2z
	 M385.9,91.1c-6.5,4.1-13.3,8-20.1,11.5c-1.9,1-18.9,9-15.1,1.4c5.6-4.3,10.7-8.8,14.8-11.9c5.6-4.2,11.3-8.6,16.8-13
	c7.1,0,14.2,0.1,21.3,0.3C397.8,83.4,391.9,87.3,385.9,91.1z"/>
<path class="st0" d="M295.7,106.3c0.2-0.3,0.4-0.6,0.5-1C296,105.6,295.9,106,295.7,106.3z"/>
</svg>
