<?xml version="1.0" encoding="utf-8"?>
<!-- Generator: Adobe Illustrator 21.0.0, SVG Export Plug-In . SVG Version: 6.00 Build 0)  -->
<svg version="1.1" id="Layer_1" xmlns="http://www.w3.org/2000/svg" xmlns:xlink="http://www.w3.org/1999/xlink" x="0px" y="0px"
	 viewBox="0 0 300 300" style="enable-background:new 0 0 300 300;" xml:space="preserve">
<style type="text/css">
	.st0{fill:#FFFFFF;}
</style>
<g>
	<path class="st0" d="M33.9,152.3c0-0.6-0.2-1-0.6-1.4c-0.4-0.4-0.9-0.6-1.4-0.6h-6.6v20.7c0,0.6,0.2,1.1,0.7,1.5
		c0.4,0.4,0.9,0.6,1.5,0.6H28v0.3h-7.6v-0.3h0.4c0.6,0,1.1-0.2,1.5-0.6c0.4-0.4,0.7-0.9,0.7-1.5v-20.7h-6.6c-0.6,0-1,0.2-1.4,0.6
		c-0.4,0.4-0.6,0.9-0.6,1.4v0.6l-0.3,0v-4.4c0.3,0.1,0.9,0.3,1.8,0.4c0.9,0.1,1.6,0.2,2.3,0.2h11.7c1.1,0,2.1-0.1,2.8-0.3
		s1.2-0.3,1.4-0.4v4.4l-0.3,0V152.3z"/>
	<path class="st0" d="M54.7,173.1H55v0.3h-7.1v-0.3h0.3c0.4,0,0.8-0.1,1-0.4s0.3-0.6,0.3-0.8c0-0.3,0-0.5-0.1-0.8l-1.9-4.6h-8.7
		l-1.9,4.5c-0.1,0.3-0.2,0.6-0.2,0.8c0,0.3,0.1,0.6,0.3,0.9c0.2,0.3,0.6,0.5,1,0.5h0.3v0.3h-6.6v-0.3h0.3c0.5,0,1-0.2,1.5-0.5
		c0.5-0.3,0.9-0.8,1.2-1.5c5-10.8,7.7-16.4,7.9-16.9c0.4-1,0.6-1.6,0.6-1.9h0.3l8.5,18.9C52.8,172.4,53.6,173.1,54.7,173.1z
		 M39.2,165.4h7.9l-3.9-9.5L39.2,165.4z"/>
	<path class="st0" d="M63.5,173.1h0.4v0.3h-7.1v-0.3h0.4c0.6,0,1-0.2,1.4-0.6s0.6-0.8,0.6-1.3v-16.3c0-0.5-0.2-0.9-0.6-1.3
		c-0.4-0.4-0.9-0.6-1.4-0.6h-0.4v-0.3h7.1v0.3h-0.4c-0.7,0-1.3,0.3-1.7,0.9c-0.2,0.3-0.3,0.6-0.3,0.9v16.4c0,0.5,0.2,0.9,0.6,1.3
		C62.4,172.9,62.9,173.1,63.5,173.1z M76.6,173.4h-1.3c-2.3,0-3.9-0.7-5.1-2l-7.6-8.3l7.4-8.7c0.3-0.3,0.3-0.6,0.1-0.9
		c-0.2-0.3-0.5-0.4-0.9-0.4H69v-0.3h7v0.3h-0.1c-1.4,0-2.5,0.4-3.4,1.2l-7.5,8l8.6,9.3c0.4,0.5,0.8,0.9,1.3,1.1
		c0.4,0.2,1,0.3,1.7,0.3V173.4z"/>
	<path class="st0" d="M78.8,173.1c0.6,0,1-0.2,1.4-0.5c0.4-0.4,0.6-0.8,0.6-1.3v-16.4c0-0.5-0.2-0.9-0.6-1.3
		c-0.4-0.3-0.9-0.5-1.4-0.5h-0.5v-0.3h10.1c0.9,0,1.8-0.1,2.5-0.2c0.7-0.1,1.2-0.3,1.4-0.3v3.9l-0.4,0v-0.5c0-0.5-0.2-0.9-0.5-1.2
		c-0.3-0.3-0.7-0.5-1.2-0.5H83v8.8h5.9c0.5,0,0.8-0.1,1.1-0.4c0.2-0.3,0.4-0.6,0.4-1v-0.4h0.4v4.8h-0.4V165c0-0.6-0.2-1.1-0.7-1.3
		c-0.2-0.1-0.4-0.1-0.6-0.1h-6v8.8h5.4c1.1,0,2-0.2,2.7-0.6c0.7-0.4,1.3-0.8,1.7-1.3c0.4-0.5,0.8-1.2,1.2-2h0.3l-1.9,4.9h-14v-0.3
		H78.8z"/>
	<path class="st0" d="M126.2,153h-0.4c-0.6,0-1.2,0.2-1.8,0.5c-0.6,0.3-1,0.8-1.4,1.3l-6.6,10v6.4c0,0.5,0.2,0.9,0.6,1.3
		c0.4,0.4,0.9,0.6,1.4,0.6h0.4v0.3h-7.1v-0.3h0.4c0.6,0,1-0.2,1.4-0.6c0.4-0.4,0.6-0.8,0.6-1.3v-6.4l-6.4-10.1
		c-0.8-1.2-1.8-1.7-3.2-1.7h-0.4v-0.3h8v0.3h-0.4c-0.4,0-0.8,0.1-0.9,0.4s-0.3,0.5-0.3,0.7s0,0.4,0.1,0.5l5,8.9l5.4-8.9
		c0.1-0.2,0.1-0.4,0.1-0.6s-0.1-0.4-0.3-0.7s-0.5-0.4-1-0.4h-0.4v-0.3h7.2V153z"/>
	<path class="st0" d="M132.3,153.6c1.8-0.9,3.7-1.4,5.9-1.4c2.1,0,4.1,0.5,5.9,1.4c1.8,0.9,3.2,2.2,4.2,3.9c1,1.7,1.6,3.5,1.6,5.6
		c0,2.1-0.5,4-1.6,5.6c-1,1.7-2.5,2.9-4.2,3.9c-1.8,0.9-3.6,1.4-5.5,1.4s-3.5-0.3-4.9-0.8c-1.4-0.5-2.7-1.3-3.7-2.2
		c-1-0.9-1.9-2.1-2.5-3.5c-0.6-1.4-0.9-3-0.9-4.8c0-1.8,0.5-3.6,1.6-5.2C129.1,155.8,130.5,154.5,132.3,153.6z M131.7,170.1
		c1.7,1.8,3.9,2.7,6.5,2.7c2.6,0,4.7-0.9,6.5-2.7c1.7-1.8,2.6-4.2,2.6-7.1c0-2.9-0.9-5.2-2.6-7.1c-1.7-1.8-3.9-2.7-6.5-2.7
		c-2.6,0-4.7,0.9-6.5,2.7c-1.7,1.8-2.6,4.2-2.6,7.1C129.1,165.9,129.9,168.3,131.7,170.1z"/>
	<path class="st0" d="M174.1,153h-0.5c-0.6,0-1.1,0.2-1.4,0.7c-0.1,0.2-0.2,0.4-0.2,0.7v11.6c0,2.4-0.8,4.3-2.3,5.7
		c-1.5,1.4-3.6,2.1-6.3,2.1c-2.7,0-4.8-0.7-6.3-2.1c-1.5-1.4-2.3-3.3-2.3-5.7v-11.6c0-0.4-0.2-0.8-0.5-1.1c-0.3-0.3-0.7-0.4-1.2-0.4
		h-0.5v-0.3h6.6v0.3h-0.5c-0.5,0-0.9,0.1-1.2,0.4c-0.3,0.3-0.5,0.6-0.5,1.1v11.2c0,2.2,0.6,4,1.7,5.3c1.1,1.3,2.8,1.9,4.8,1.9
		s3.8-0.6,5-1.8c1.3-1.2,1.9-2.9,1.9-5v-11.6c0-0.4-0.2-0.8-0.5-1.1c-0.3-0.3-0.7-0.4-1.2-0.4h-0.5v-0.3h5.9V153z"/>
	<path class="st0" d="M183.7,153.8h-1.8v17.4c0,0.7,0.3,1.3,1,1.6c0.3,0.2,0.6,0.2,1,0.2h0.4l0,0.3h-7.1v-0.3h0.5
		c0.5,0,1-0.2,1.4-0.5c0.4-0.4,0.6-0.8,0.6-1.3v-16.4c0-0.5-0.2-0.9-0.6-1.3c-0.4-0.3-0.8-0.5-1.4-0.5h-0.5v-0.3h8.7
		c2.2,0,3.9,0.5,5.1,1.5c1.3,1,1.9,2.3,1.9,3.9c0,1.6-0.5,3-1.5,4c-1,1.1-2.3,1.7-3.9,1.9c0.7,0.3,1.6,1.2,2.7,2.7
		c0,0,0.4,0.5,1.2,1.5c0.8,1,1.5,1.8,2,2.4c0.5,0.6,0.9,1,1.2,1.3c0.9,0.8,1.8,1.2,2.9,1.2v0.3h-1.1c-1.8,0-3.2-0.4-4.3-1.1
		c-0.8-0.5-1.5-1.2-2.1-2c-0.1-0.2-0.7-1-1.7-2.4c-1-1.4-1.6-2.2-1.6-2.3c-1.2-1.5-2.4-2.3-3.5-2.3V163c2.7,0,4.3-0.1,4.9-0.4
		c0.8-0.4,1.3-0.8,1.6-1.2c0.6-0.9,0.9-1.9,0.9-3c0-1.4-0.4-2.5-1.2-3.2c-0.8-0.8-1.9-1.2-3.4-1.2
		C185.2,153.8,184.5,153.8,183.7,153.8z"/>
	<path class="st0" d="M207.6,172.3c-0.1-0.3-0.1-0.8-0.1-1.7s0.1-1.7,0.4-2.6h0.4c0,0.2,0,0.4,0,0.6c0,1.2,0.4,2.3,1.2,3.1
		c0.8,0.8,2,1.2,3.4,1.2c1.5,0,2.7-0.4,3.6-1.1c0.9-0.7,1.3-1.6,1.3-2.7s-0.4-2-1.2-2.8l-6.9-5.3c-1.1-0.9-1.7-2.2-1.7-3.8
		c0-0.9,0.2-1.7,0.7-2.5c0.5-0.8,1.2-1.4,2.1-1.8c0.9-0.4,1.9-0.7,3.1-0.7s2.3,0.1,3.2,0.3h1.1l0.1,3.8H218c0-1-0.3-1.7-1-2.2
		s-1.6-0.8-2.9-0.8c-1.2,0-2.3,0.3-3.1,0.9c-0.8,0.6-1.2,1.5-1.2,2.5c0,1,0.4,1.9,1.3,2.6l7,5.4c1.1,0.9,1.6,2.1,1.6,3.7
		c0,1.6-0.6,2.9-1.8,4c-1.2,1.1-2.6,1.6-4.3,1.6c-1.1,0-2.3-0.1-3.4-0.4C209.1,173.2,208.2,172.8,207.6,172.3z"/>
	<path class="st0" d="M238.9,173.1c0.5,0,1-0.2,1.4-0.5c0.4-0.4,0.6-0.8,0.6-1.3v-7.5h-12.7v7.5c0,0.5,0.2,0.9,0.6,1.3
		c0.4,0.4,0.9,0.5,1.4,0.5h0.4v0.3h-7v-0.3h0.4c0.6,0,1-0.2,1.4-0.6s0.6-0.8,0.6-1.3v-16.3c0-0.5-0.2-0.9-0.6-1.3
		c-0.4-0.4-0.9-0.6-1.4-0.6h-0.4v-0.3h7v0.3h-0.4c-0.5,0-1,0.2-1.4,0.5c-0.4,0.4-0.6,0.8-0.6,1.3v7.8h12.7v-7.8
		c0-0.5-0.1-0.9-0.4-1.2c-0.5-0.5-1-0.7-1.6-0.7h-0.4v-0.3h7v0.3h-0.4c-0.5,0-1,0.2-1.4,0.5c-0.4,0.3-0.6,0.8-0.6,1.3v16.4
		c0,0.5,0.2,0.9,0.4,1.1c0.5,0.5,1,0.7,1.6,0.7h0.4v0.3h-7v-0.3H238.9z"/>
	<path class="st0" d="M254.4,153.6c1.8-0.9,3.7-1.4,5.9-1.4c2.1,0,4.1,0.5,5.9,1.4c1.8,0.9,3.2,2.2,4.2,3.9c1,1.7,1.6,3.5,1.6,5.6
		c0,2.1-0.5,4-1.6,5.6c-1,1.7-2.5,2.9-4.2,3.9c-1.8,0.9-3.6,1.4-5.5,1.4c-1.9,0-3.5-0.3-4.9-0.8c-1.4-0.5-2.7-1.3-3.7-2.2
		c-1-0.9-1.9-2.1-2.5-3.5c-0.6-1.4-0.9-3-0.9-4.8c0-1.8,0.5-3.6,1.6-5.2C251.2,155.8,252.6,154.5,254.4,153.6z M253.7,170.1
		c1.7,1.8,3.9,2.7,6.5,2.7s4.7-0.9,6.5-2.7c1.7-1.8,2.6-4.2,2.6-7.1c0-2.9-0.9-5.2-2.6-7.1c-1.8-1.8-3.9-2.7-6.5-2.7
		s-4.7,0.9-6.5,2.7c-1.7,1.8-2.6,4.2-2.6,7.1C251.1,165.9,252,168.3,253.7,170.1z"/>
	<path class="st0" d="M283.6,153.7v17.5c0,0.7,0.4,1.2,1,1.6c0.3,0.2,0.6,0.2,1,0.2h0.4v0.3h-7.1v-0.3h0.4c0.6,0,1-0.2,1.4-0.6
		c0.4-0.4,0.6-0.8,0.6-1.3v-17.5h-6.3c-0.5,0-0.9,0.2-1.3,0.5c-0.3,0.3-0.5,0.8-0.5,1.2v0.6H273v-3.9c0.5,0.2,1.1,0.3,2,0.4
		c0.8,0.1,1.5,0.1,1.9,0.1h11.3c1.7,0,2.9-0.2,3.9-0.6v3.9h-0.4v-0.6c0-0.5-0.2-0.9-0.5-1.2c-0.3-0.3-0.7-0.5-1.2-0.5H283.6z"/>
</g>
<g>
	<g>
		<polygon points="290.5,127 183.2,127 116.8,127 9.5,127 96.3,190.1 63.1,292.2 150,229.1 236.9,292.2 203.7,190.1 		"/>
	</g>
</g>
<g>
	<path d="M184.5,17c0.1,0,0.2,0,0.3,0c0.2,0.1,0.3,0.4,0.5,0.4c1.9-0.4,2.4,0.6,2.6,2.3c0.1,0.7,0.3,1.4,0.5,2
		c0.2,0.6,0.8,1.3,0.7,1.9c-0.5,3.6,0.5,6.9,1,10.3c0.1-0.1,0.3-0.3,0.4-0.4c1.1,1,2.2,2.1,3.5,3.3c0.1-0.7,0.1-1.3,0.2-1.8
		c0.1,0,0.2,0,0.3,0c0.1,0.7,0.1,1.4,0.2,2.2c1.8-1.1,3.4-2,5-3.1c0.3-0.2,0.4-0.9,0.3-1.2c-0.9-3.9,0.6-7,4.2-8.7
		c1.7-0.8,5.6-0.4,6.3,1.2c0.8,1.9,1.8,3.7,2.7,5.7c0.9,2,0.4,3.7-1.3,5.2c-0.3,0.2-0.5,0.8-0.5,1.1c0.1,1,0.4,2,0.7,3
		c0.1,0.3,0.5,0.4,0.8,0.5c0.6,0.2,1.1,0.4,1.7,0.5c1,0.3,2.3,1,2.9,0.7c0.9-0.6,2.5-1.2,1.9-2.9c0-0.1,0.9-0.9,1.2-0.8
		c1.5,0.5,2.2-0.4,2.6-1.5c0.5-1.7,1-3.3,1.4-5.1c0.2-0.8,0-1.8-0.1-2.7c-0.2-1.7,0-3.3,1.2-5c0.2,0.8,0.2,1.3,0.4,1.9
		c0.5-0.9,0.9-1.7,1.5-2.8c0.7,1.7,1.8,2.7,1.3,4.5c-0.5,2-1,4-1.2,6c-0.2,2.3-0.3,4.7-0.1,7c0.2,3-1.4,4.6-3.6,6
		c-0.9,0.6-1.9,1.1-2.8,1.6c0.2,0.9,0.3,1.7,0.5,2.5c0.8,3.4,1.6,6.9,2.5,10.3c0.1,0.3,0.4,0.6,0.6,0.9c1.2,1.5,2.7,2.9,3.6,4.6
		c1.5,2.7,2.5,5.7,3.7,8.5c2.4,5.2,4.7,10.3,5.8,16c0.2,0.9,0.4,1.7,0.8,2.5c3.1,6.7,4.5,13.9,5.7,21.1c0.8,5,1,10.1,1.5,15.6
		c-1,0-1.7,0.1-2.4,0c-1.6-0.2-3.1-0.8-4.7-0.8c-3.5-0.2-7-0.1-10.5-0.3c-2.4-0.1-4.8-0.5-7-0.8c-0.2,1.1-0.3,2-0.5,2.9
		c-0.3,0.9-0.7,1.8-1,2.7c-2.4,0-4.8,0-7.2,0c-0.1-0.9-0.3-1.8-0.4-2.5c-0.9,0.2-2.1,0.3-3.2,0.6c-0.5,0.1-1.1,0.3-1.4,0.6
		c-0.8,1.1-1.9,1.3-2.9,0.9c-1.4-0.6-2.7-0.3-4.2-0.1c-4.9,0.4-9.6-0.7-13.8-3.3c-2.5-1.5-2.4-1.6-1.6-4.5c1-3.6,2.2-7.2,2.6-10.8
		c1-10.4,2.9-20.5,6.8-30.3c1-2.5,1.4-5.1,1.1-7.8c-0.3-2.1-0.1-4.3,0.5-6.3c0.6-2.1,1.6-4.4,3.1-5.8c1.5-1.4,3.9-1.7,5.9-2.5
		c0.7-0.3,1.5-0.5,2.3-0.8c-0.3-0.7-0.3-1.4-0.7-1.8c-2.1-2.9-4.1-5.7-6.3-8.5c-0.8-1-2-1.6-3.2-0.2c-0.2,0.2-0.4,0.3-0.7,0.4
		c-2,0.7-4,1.3-6,2c-0.9,0.3-1.5,0.2-1.5-0.9c2.2-1.1,4.5-2.1,6.7-3.2c-0.1-0.2-0.2-0.5-0.3-0.7c-3,1.4-6,2.9-9.1,4.4
		c0.1,0.1-0.2-0.2-0.6-0.5c0.8-0.5,1.6-1,2.2-1.4c-0.9-0.1-1.9-0.3-2.8-0.4c0-0.1-0.1-0.3-0.1-0.4c0.3-0.1,0.7-0.3,1.2-0.5
		c-0.8-0.3-1.1-0.4-1.5-0.5c1.4-0.3,2.8-0.2,4-1.7c-2.3,0.3-4.1,0.5-6,0.8c0-0.1,0-0.2-0.1-0.3c0.8-0.2,1.6-0.3,2.7-0.6
		c-1-0.1-1.7-0.2-2.3-0.2c0-0.1,0-0.3,0-0.4c0.6,0,1.3,0,1.8,0c0.1-0.7,0.2-1.3,0.3-1.6c-0.7,0-1.6,0-2.8,0c0.7-0.8,1.1-1.2,1.4-1.6
		c-1.2-2-1-2.5,0.5-4c0.7-0.8,1.3-2.1,1.4-3.1c0.2-3.2,0.1-6.4,0.2-9.6c0-0.7-0.1-1.4-0.1-2.3c-0.8,0.7-1.4,1.1-1.9,1.5
		c0.1,0.1,0.3,0.1,0.4,0.2c-0.1,0.6,0,1.3-0.3,1.8c-2.2,4.2-4.5,8.2-6.6,12.4c-0.7,1.4-1.5,2.3-3,2.6c-5.4,1.2-10.7,2.6-16.1,3.8
		c-0.9,0.2-1.3,0.5-1.4,1.5c-0.3,2.7-0.5,5.4-0.9,8.1c-0.3,2.3,0.4,3.9,2.2,5.4c2,1.6,4.1,3.3,5.4,5.4c1.8,2.9,3.4,6.2,4.4,9.5
		c2.6,8.5,4.9,17,7.2,25.5c2.4,8.9,4.6,17.9,6.8,26.8c0.1,0.5,0,1.4-0.3,1.5c-2.4,1-4.6,2.5-7.4,2.3c-0.9-0.1-1.9-0.1-2.8,0
		c-5.1,0.7-6.9,0.4-11.4-1.9c-0.1,0-0.2,0-0.3-0.1c-2.5-0.5-3.6,0.4-3.6,2.9c0,0.1-0.1,0.3-0.2,0.4c-0.7,0-1.3,0-2,0
		c0.1-0.7,0.2-1.5,0.4-2.5c-1.1,1-1.9,1.8-2.7,2.5c-5.1,0-10.3,0-15.4,0c-1.9-0.2-3.9-0.5-5.8-0.6c-3.5-0.1-7,0.1-10.5,0.1
		c-1.8,0-2.2-0.4-1.8-2.1c0.7-3.3,1.5-6.5,2.2-9.8c0.8-4.1,1.4-8.2,2.2-12.2c1.6-8.7,3.2-17.4,4.9-26.1c0.9-4.7,1.8-9.3,3-13.9
		c0.9-3.4,2.9-6.1,6.4-7.5c1-0.4,2-1,3.3-1.7c-1-3.6-2-7.2-3-10.8c-0.7-2.5-0.8-2.4-3.3-2.3c-4.9,0.2-9.7,0.4-14.6,0.6
		c-1.1,0.1-1.7-0.5-2.2-1.4c-1-2-2.2-3.9-3.2-5.9c-0.8-1.7-1.3-3.4-2.1-5.1c-0.6-1.4-1.2-2.9-2.9-4.2c-1,2.8-1.8,5.3-2.7,7.8
		c-0.6,1.5,0.1,2.6,1.1,3.6c0.5,0.4,0.9,1,1.1,1.5c0.8,1.8-0.9,5.8-2.7,6.7c0.1,0.6,0.2,1.1,0.3,2c-1,0-1.9,0-2.8,0
		c0,0.1,0.1,0.3,0.1,0.6c-3.5-1.4-3.5-1.4-3.7-4.1c-2.1,0.3-3.9,0.9-5.1,3c-1.8,3.3-1.7,6.9-2.2,10.4c5.6,1.7,9.1,5.4,10.8,10.7
		c1.1,3.5,1.9,7.1,2.4,10.7c1.1,7.7,1.8,15.5,2.8,23.3c0.9,7.3,2,14.6,3.1,22.2c-1.4,0.1-3,0.2-4.7,0.4c-0.8,0.1-2-0.4-2,1.2
		c0,0.2-0.6,0.4-0.9,0.5c-1.1,0.1-2.2,0.2-3.3,0.1c-3.4-0.2-6.8-0.4-10-0.6c-0.4,1.1-0.6,2-0.9,2.8c-1.3,0-2.6,0-3.9,0
		c-1.9-0.6-1.3-2.1-1.2-2.8c-0.7-1-1.3-1.5-1.7-2.2c-0.4-0.9-0.9-1.1-1.8-0.8c-1.4,0.5-2.9,1-4.4,1.3c-1.5,0.3-2.8,0.6-2.4,2.6
		c0,0.2-0.1,0.6-0.2,0.6c-1.4,0.1-2.9,0.4-4.3,0.2c-0.4-0.1-0.7-1.5-1-2.3c0.1-0.2,0.1-0.4,0.2-0.6c-1,0.3-2,0.6-3,0.9
		c-0.2,0.1-0.5,0-0.8-0.1c-2.8-0.5-5.6-0.9-8.4-1.4c-2.2-0.4-4.3-1.1-6.6-1.8c1.9-5.6,3.8-10.7,5.5-16c2-6.4,3.9-12.8,5.7-19.3
		c1.8-6.4,3.2-12.8,4.9-19.2c1.3-4.9,4.4-8.3,9.4-9.8c1.1-0.3,1.6-1,1.3-2.1c-0.4-2.2-0.9-4.4-1.4-6.6c-0.1,0-0.3,0-0.4,0
		c-0.2,0.5-0.5,0.9-0.5,1c-0.8,0-1.6-0.2-1.9,0c-2.8,2.1-5.7,3.8-9.2,4.4c-0.5,3.7-1,7.3-3.9,10.2c-0.6-0.6-1.9-1.2-1.9-2
		c-0.1-1.2-0.6-2-1.5-2.7c-0.3-0.3-0.8-1-0.7-1.2c1.2-1.6,0.5-3.4,0.5-5.1c-0.1-1.7-0.3-3.3,1.9-3.8c-1.5-1.9-2.9-3.6-4.3-5.4
		c-0.3-0.3-0.6-0.6-1-0.8c-1.1-0.6-2.3-1.2-3.5-1.7c-0.5-0.2-1.1-0.4-1.7-0.6c-0.9-0.2-1.8-0.3-2.9-0.5c0.7-1.1,1-1.9,1.5-2.4
		c1.3-1.1,3.6-0.7,5.2,0.6c2.7,2.1,5.3,4.2,8.1,6.1c0.8,0.6,1.9,0.8,2.8,1.3c0.9,0.4,1.8,0.9,2.9,1.5c0.4-0.3,1.2-0.8,1.9-1.4
		c2.3-2.2,4.6-4.4,6.9-6.7c0.3-0.3,0.6-0.7,0.6-1.1c0-1.1,0.2-2,0.6-2.5c0.3-0.4,0.6-1.1,0.4-1.5c-0.4-0.9-0.1-1.3,0.7-1.8
		c0.4-0.3,0.9-1.3,0.8-1.6c-0.6-1.2,0-1.9,0.7-2.7c0.6-0.7,1-1.5,1.5-2.2c1-1.4,1.8-3,3.1-4.1c2.5-2.1,5.6-1.6,7.3,1.1
		c0.6,1,0.6,2.3,1,3.4c0.6,1.6,0.1,3-0.6,4.4c-0.2,0.4-0.4,0.9-0.6,1.3c-0.3-0.1-0.6-0.3-1.4-0.6c0.4,1.7,0.7,2.9,1,4
		c0.8,0,1.5-0.2,1.7,0c1.5,1.6,3.2,0.6,4.9,0.6c0.3,0,0.6-0.3,0.8-0.4c1-0.7,2-1.4,3-2.1c0.1,0.2,0.2,0.3,0.3,0.5
		c-0.5,0.8-1,1.6-1.7,2.7c0.7-0.1,1.6,0,2.2-0.4c1-0.6,1.3-1.6,0.6-2.7c2.5-1.1,4.3-7.4,3-9.1c0.5-0.8,1.2-1.4,1.3-2.1
		c0.4-2.8,2.9-4,5.2-2.2c1.2,0.9,1.9,2.5,3.1,3.2c1.4,0.8,1.7,2.1,2,3.4c0.7,3.3,2.7,5.9,4.7,8.5c0.2,0.3,0.6,0.6,0.9,0.6
		c2.4-0.4,5-0.5,7.3-1.4c2.1-0.8,2.2-3.1,0.6-4.6c-0.1,0.3-0.2,0.5-0.4,0.9c-0.3-1.6,0-1.7,1.9-1c0.6-0.9,1.3-1.8,1.9-2.7
		c-0.7-0.1-1.3,0.3-1.6,0.2c-0.8-0.4-1.5-1.1-2.5-0.8c-0.2,0.1-0.5-0.4-0.8-0.6c1.4-0.6,3.1-0.4,3.9-1.6c-1.4-1.6-2.6-3-3.7-4.3
		c1.1-0.5,2.2-0.9,3.1-1.4c1.1-0.6,1.9-0.5,2.4,0.7c0,0,0.2,0,0.4,0c0-0.3-0.1-0.7-0.1-0.9c1.7,0.4,3.3,0.9,4.8,1.3
		c2-2.4,4.6-3.5,7.4-4.2c2.3-0.5,4.1,0.1,5.4,2.2c1,1.6,2,3.1,2.3,5c0.4,2.2-0.1,3.3-2.3,4.1c-0.4,0.2-0.9,0.4-1.2,0.8
		c-0.7,1.2,0.6,4.5,2,4.8c1.3,0.3,2.7,0.3,4,0.4c2.7,0.2,5.5,0.5,8.2,0.3c2.1-0.1,4.3-0.7,6.4-1.1c0.7-0.1,1.6-0.1,2.1-0.6
		c0.8-0.8,1.5-1.9,2.1-2.9c2.1-4.2,4.1-8.4,6.3-12.6C182.1,20.2,183.4,18.7,184.5,17z M58.4,64.9c0.3,0.1,0.6,0.2,0.9,0.2
		c0.2-0.8,0.4-1.7,0.7-2.5c-0.3-0.1-0.5-0.1-0.8-0.2C58.9,63.2,58.6,64,58.4,64.9z"/>
</g>
<g>
	<path class="st0" d="M97,74.5h-0.4c-2.5,0-4.2,1.2-5.1,3.7l-9,26.9c-0.9,2.6-1.4,4.9-1.4,6.9h-0.6L68.8,82.4l-8.1,22.7
		c-0.8,2.6-1.3,4.9-1.4,6.9h-0.6L45.7,77.9c-1-2.3-2.6-3.4-5-3.4h-0.5v-0.6H53v0.6h-0.5c-0.7,0-1.3,0.2-1.7,0.7
		c-0.4,0.5-0.6,0.9-0.6,1.4c0,0.5,0.1,0.9,0.2,1.3l8.3,25.3l10.5-30.3l0.6,0.1L81,101.3l7-23.1c0.2-0.6,0.3-1.1,0.3-1.6
		c0-0.5-0.2-0.9-0.5-1.4c-0.3-0.5-0.9-0.7-1.7-0.7h-0.5v-0.6H97V74.5z"/>
	<path class="st0" d="M109.6,75.5c3.2-1.6,6.7-2.5,10.6-2.5s7.4,0.8,10.6,2.5c3.2,1.6,5.7,4,7.6,6.9c1.9,3,2.8,6.4,2.8,10.1
		c0,3.8-0.9,7.2-2.8,10.1c-1.9,3-4.4,5.3-7.6,6.9c-3.2,1.6-6.5,2.5-9.8,2.5s-6.3-0.5-8.9-1.4c-2.6-1-4.8-2.3-6.7-4
		c-1.9-1.7-3.4-3.8-4.5-6.2c-1.1-2.4-1.6-5.3-1.6-8.6c0-3.3,0.9-6.4,2.8-9.4C103.9,79.4,106.4,77.1,109.6,75.5z M108.5,105.3
		c3.1,3.3,7,5,11.7,5c4.6,0,8.6-1.6,11.7-5c3.2-3.3,4.7-7.5,4.7-12.7s-1.6-9.4-4.7-12.7c-3.2-3.3-7.1-4.9-11.7-4.9
		c-4.6,0-8.5,1.6-11.7,4.9c-3.1,3.3-4.7,7.5-4.7,12.7S105.3,102,108.5,105.3z"/>
	<path class="st0" d="M158.4,75.8h-3.3v31.4c0,1.3,0.6,2.3,1.7,2.9c0.5,0.3,1.1,0.4,1.8,0.4h0.8l0.1,0.6h-12.8v-0.6h0.9
		c1,0,1.8-0.3,2.5-1c0.7-0.6,1-1.4,1-2.3V77.8c0-0.9-0.3-1.7-1-2.3c-0.7-0.6-1.5-0.9-2.5-0.9h-0.9v-0.6h15.6c3.9,0,7,0.9,9.2,2.7
		c2.3,1.8,3.4,4.1,3.4,7c0,2.9-0.9,5.3-2.7,7.3s-4.2,3.1-7,3.4c1.3,0.6,2.9,2.2,4.8,4.9c0,0,0.7,0.9,2.1,2.7
		c1.5,1.8,2.7,3.2,3.5,4.3c0.9,1,1.6,1.8,2.2,2.3c1.5,1.5,3.3,2.2,5.3,2.2v0.6h-1.9c-3.3,0-5.9-0.6-7.7-1.9c-1.4-1-2.7-2.1-3.9-3.5
		c-0.3-0.3-1.3-1.8-3.1-4.4c-1.8-2.6-2.8-4-3-4.1c-2.2-2.8-4.3-4.2-6.3-4.2v-0.6c4.9,0,7.8-0.2,8.8-0.7c1.4-0.7,2.3-1.5,2.8-2.2
		c1-1.7,1.6-3.5,1.6-5.5c0-2.5-0.7-4.5-2.2-5.9c-1.5-1.4-3.5-2.1-6-2.2C161.1,75.8,159.8,75.8,158.4,75.8z"/>
	<path class="st0" d="M197.9,110.6h0.7v0.6h-12.8v-0.6h0.7c1,0,1.8-0.3,2.6-1s1.1-1.5,1.1-2.4V77.9c0-0.9-0.4-1.7-1.1-2.4
		c-0.7-0.7-1.6-1-2.6-1h-0.7v-0.6h12.8v0.6h-0.7c-1.3,0-2.4,0.5-3.1,1.6c-0.3,0.5-0.5,1.1-0.5,1.7v29.5c0,0.9,0.4,1.7,1.1,2.3
		C196,110.3,196.9,110.6,197.9,110.6z M221.5,111.2h-2.3c-4.1,0-7.1-1.2-9.2-3.5l-13.7-15l13.4-15.8c0.5-0.6,0.5-1.1,0.2-1.7
		c-0.3-0.5-0.8-0.8-1.6-0.8h-0.6v-0.6h12.7v0.6h-0.2c-2.5,0-4.5,0.7-6,2.2l-13.6,14.5l15.4,16.8c0.7,0.9,1.5,1.6,2.3,1.9
		c0.8,0.4,1.8,0.6,3.1,0.6V111.2z"/>
	<path class="st0" d="M230.4,110.7c-0.5,0.5-1.2,0.8-2,0.8c-0.8,0-1.5-0.3-2-0.8c-0.5-0.5-0.8-1.2-0.8-2c0-0.8,0.3-1.5,0.8-2
		c0.5-0.5,1.2-0.8,2-0.8c0.8,0,1.5,0.3,2,0.8c0.5,0.5,0.8,1.2,0.8,2C231.2,109.5,230.9,110.2,230.4,110.7z M229.9,86.2l-1.3,14.5
		H228l-1.2-14.5L226,67.5h4.7L229.9,86.2z"/>
	<path class="st0" d="M244.7,110.7c-0.5,0.5-1.2,0.8-2,0.8s-1.5-0.3-2-0.8c-0.5-0.5-0.8-1.2-0.8-2c0-0.8,0.3-1.5,0.8-2
		c0.5-0.5,1.2-0.8,2-0.8s1.5,0.3,2,0.8c0.5,0.5,0.8,1.2,0.8,2C245.5,109.5,245.2,110.2,244.7,110.7z M244.2,86.2l-1.3,14.5h-0.6
		l-1.2-14.5l-0.7-18.6h4.7L244.2,86.2z"/>
	<path class="st0" d="M259,110.7c-0.5,0.5-1.2,0.8-2,0.8c-0.8,0-1.5-0.3-2-0.8c-0.5-0.5-0.8-1.2-0.8-2c0-0.8,0.3-1.5,0.8-2
		s1.2-0.8,2-0.8c0.8,0,1.5,0.3,2,0.8c0.5,0.5,0.8,1.2,0.8,2C259.8,109.5,259.5,110.2,259,110.7z M258.6,86.2l-1.3,14.5h-0.6
		l-1.2-14.5l-0.7-18.6h4.7L258.6,86.2z"/>
</g>
</svg>
