<?xml version="1.0" encoding="utf-8"?>
<!-- Generator: Adobe Illustrator 21.0.0, SVG Export Plug-In . SVG Version: 6.00 Build 0)  -->
<svg version="1.1" id="Layer_1" xmlns="http://www.w3.org/2000/svg" xmlns:xlink="http://www.w3.org/1999/xlink" x="0px" y="0px"
	 viewBox="0 0 300 300" style="enable-background:new 0 0 300 300;" xml:space="preserve">
<style type="text/css">
	.st0{fill:#FFFFFF;}
</style>
<path d="M290.5,127h-76.8c0-0.6-0.1-1.2-0.2-1.7c-0.1-1.2-0.9-2.3-0.2-3.6c0.1-0.2,0-0.5-0.1-0.8c-0.1-0.4-0.2-0.8-0.2-1.2
	c0-3,0-6-0.1-8.9c-0.1-3.2-0.4-6.4-0.5-9.5c0-0.4-0.2-0.7-0.6-0.7c-0.6,0.1-0.7-0.2-0.7-0.7c0-0.7,0-1.4,0-2c0-0.4,0.2-0.9,0.3-1.3
	c0.1-0.4,0.6-0.7,0.6-1c-0.1-1.2,0.5-2.3,0.7-3.4c0.1-0.6,0.2-1.2,0.3-1.8c0-0.1,0.2-0.3,0.3-0.4c0.1,0.1,0.3,0.2,0.3,0.3
	c0.1,0.2,0.1,0.5,0.2,0.7c0.1,0,0.2,0,0.4-0.1c-0.1-0.6-0.1-1.2-0.2-1.8c0-0.2,0-0.4,0.1-0.5c0.6-1,0.8-2.1,0.8-3.3
	c0-0.5,0.1-1.1,0.2-1.6c0.3-1.4,0.7-2.9,1-4.3c0-0.1,0.2-0.3,0.3-0.4c0.1,0.1,0.3,0.3,0.3,0.4c0,1.6-0.1,3.2-0.2,4.8
	c0,0.7,0.2,1.2,0.9,1.5c1.5,0.5,3,1.1,4.5,1.6c0.2,0.1,0.4,0,0.6,0c-0.3-1.4-0.5-2.7-0.8-4c-0.2-0.7-0.1-1.4,0.7-1.7
	c1.5-0.6,3-1.4,4.6-1.7c2.8-0.7,5.4-1.8,7.4-4c0.5-0.5,0.5-0.8,0-1.4c-1.3-1.5-2.6-3.1-3.8-4.7c-1.7-2.2-3.2-4.5-4.8-6.7
	c-0.4-0.6-1.1-1.3-0.4-2.2c0.1-0.2,0.1-0.6-0.1-0.8c-0.5-0.6-1-1.1-1.6-1.6c-0.8-0.7-1.8-1.2-2.4-2.1c-1.6-2.2-3.1-4.6-4.7-6.9
	c-0.2-0.3-0.2-0.6-0.2-0.9c0.1-0.5,0.3-1.1,0.5-1.6c1-2,1.7-4.2,1.6-6.5c0-1.7,0.2-3.5,0-5.2c0-0.2,0.1-0.3,0.2-0.5
	c0.1-0.5,0.5-1.1,0.3-1.5c-0.3-0.9-0.7-1.7-0.4-2.7c0.1-0.6-0.1-1.2-0.2-1.8c-0.2-1.2-0.4-2.3-0.6-3.4c-0.1-0.6-0.3-1.3-0.3-1.9
	c-0.1-0.7,0-1.3-0.6-1.9c-0.4-0.4-0.2-0.9,0.3-1.3c0.3-0.2,0.6-0.4,0.8-0.6c0.6-0.6,0.6-0.8-0.1-1.3c-0.8-0.5-1.6-1-2.4-1.5
	c-0.2-0.1-0.3-0.5-0.2-0.6c0.3-0.6,0.6-1.2,0.9-1.8c0.2-0.5,0.4-1.1,0.5-1.6c0.1-0.7-0.2-1-0.9-0.9c-0.6,0.1-0.8-0.3-0.5-0.8
	c0.4-0.7,0.9-1.4,1.4-2c0.1-0.2,0.2-0.4,0.4-0.6c-0.1-0.1-0.1-0.1-0.2-0.2c-0.3,0.2-0.6,0.4-0.9,0.6c-0.5,0.4-0.9,0.9-1.3,1.4
	c-0.1,0.1-0.3,0.3-0.4,0.3c-1.1,0-1.3,0.9-1.6,1.6c-0.1,0.2-0.2,0.5-0.4,0.6c-0.2,0.1-0.5,0.1-0.7,0.1c0,0-0.1-0.4,0-0.5
	c0.1-0.4,0.2-0.7,0.3-1.1c0-0.2-0.1-0.5-0.2-0.7c0,0-0.3,0-0.4,0.1c-0.8,0.6-1.3,2.4-1,3.3c0.2,0.9,0.6,1.7,1,2.5
	c-0.4,0.2-0.8,0.4-1.2,0.6c-0.6,0.3-1,0.6-0.9,1.4c0,0.3-0.1,0.7-0.4,0.9c-0.5,0.4-0.5,0.9-0.5,1.4c0,0.2,0,0.6,0.1,0.6
	c0.2,0.1,0.6,0.1,0.8-0.1c0.3-0.2,0.6-0.5,0.9-0.7c0.2-0.1,0.4-0.1,0.6-0.1c0,0.2,0.1,0.4,0.1,0.6c0,0.2-0.1,0.5,0,0.7
	c0.3,0.9,0.6,1.9,0.9,2.8c0.2,0.5,0.7,1.1,0.6,1.5c-0.2,0.8,0.1,1.5,0.3,2.2c0.1,0.3,0.2,0.7,0,1c-0.9,1.7-0.6,3.7-1.4,5.5
	c-0.3,0.7-0.6,1-1.3,1.2c0-0.2-0.1-0.3,0-0.4c0.8-0.8,0.5-1.7,0.3-2.6c-0.1-0.6-0.1-1.2-0.3-1.8c-0.3-1.3-1.2-2.3-2.2-3.2
	c-1.2-1.2-2.4-1.4-3.9-0.7c-1.9,0.9-2.7,2.6-2.9,4.6c-0.1,0.7-0.1,1.5-0.1,2.2c0,0.6,0,1.2-0.1,2c0.7-0.3,1,0,1,0.4
	c0.1,1.1,0.2,2.2,0.3,3.3c0,0.5-0.2,0.7-0.7,0.6c-0.6-0.1-1.2-0.2-1.7-0.2c-0.5,0-1.1,0.2-1,0.8c0.2,0.7,0.3,1.2-0.1,1.8
	c0,0.1,0,0.2,0.1,0.4c0.2,0.5-0.1,0.8-0.5,0.9c-1.8,0.7-2.9,2.1-3.4,3.9c-0.1,0.2-0.2,0.6-0.4,0.6c-1.7,0.4-2.4,2.3-4,2.8
	c-0.1,0-0.2,0.2-0.3,0.2c-0.6,0.4-1.1,0.9-1.7,1c-1.3,0.3-2.6,0.4-3.9,0.4c-1.5,0-3.1-0.2-4.6-0.3c-0.6,0-0.9-0.2-0.9-0.8
	c0-0.3-0.3-0.6-0.6-0.7c-1.3-0.9-2.5-0.7-3.8,0.1c-1.9,1.1-2.4,2-2.1,4.2c0,0.1,0,0.2,0,0.3c0,0.8-0.2,1.6-0.1,2.4
	c0.1,0.5,0.6,1,1,1.3c0.1,0.1,0.6-0.2,0.9-0.3c0.5-0.1,1.3-0.5,1.6-0.2c0.7,0.6,1,0.3,1.2-0.5c0.9,0.2,1.9,0.1,2.6,0.5
	c1.7,0.8,3.3,0.7,5,0.3c0.1,0,0.3,0.1,0.5,0.1c0.5,0.2,1,0.4,1.5,0.5c0.7,0.1,1.6,0.2,2.3,0c0.8-0.2,1.6-0.4,2.5-0.4
	c0.8,0,1.5-0.2,2.3-0.3c0.5-0.1,1.1-0.2,1.6-0.2c0.2,0,0.6,0.2,0.7,0.4c0.4,0.9,0.9,1.8,1.1,2.7c0.2,0.7,0.4,1.5,0.3,2.1
	c-0.1,1.1-0.4,2.1,0.1,3.2c0.1,0.2,0,0.6-0.1,0.9c-0.2,0.5-0.5,0.9-0.6,1.4c-0.2,0.8-0.4,1.7-0.6,2.7c0.3-0.1,0.5-0.1,0.6-0.1
	c0.2,0,0.5-0.1,0.7-0.1c0,0.2,0.1,0.5,0,0.7c-0.1,0.6-0.3,1.1-0.4,1.7c-0.2,0.8-0.3,1.6,0.2,2.4c0.4,0.7,0.6,1.4,0.5,2.3
	c-0.1,2.8-0.3,5.6-0.1,8.3c0.2,3.3,0.7,6.5,1.2,9.8c0.2,1.1,0.3,2.2,1.1,3.1c0.5,0.6,0.9,1.4,1,2.1c0.4,2.8,0.6,5.5,1,8.3
	c0.1,1.1,0.3,2.2,0.5,3.3c0.2,1.5,0.5,3,0.7,4.5c0.1,0.4,0.3,0.9,0.3,1.3c0.1,0.5,0.2,1,0.1,1.4c-0.7,2.4-2.5,3.6-4.8,4.3
	c-0.5,0.1-1.1,0.2-1.6,0.3c-0.4,0.1-0.9,0.2-1.2,0.4c-0.1,0.1-0.2,0.3-0.3,0.5h-12.2h-8.8c-0.2-0.1-0.5-0.2-0.7-0.3
	c-0.9-0.2-1.8-0.3-2.6-0.7c-0.9-0.5-1.8-1.3-2.5-2.1c-1.5-1.8-1.4-1.8,0.1-3.4c0.4-0.4,0.5-0.9,0.4-1.5c-0.1-0.3,0.1-0.8,0.4-1
	c0.6-0.4,1.1-0.9,1.2-1.7c0.1-0.9,0.6-1.7,1-2.5c1.2-2.6,2.4-5.2,3.5-7.8c0.1-0.2,0.1-0.4,0-0.5c-0.2-0.9,0-1.3,0.7-1.5
	c0.2-0.9,0.6-1.6,0.6-2.4c0.1-1.3,0.1-2.6,0.1-3.9c0-0.5,0.1-0.6,0.6-0.7c0.7-0.1,1.4-0.3,2.2-0.4c-1-2.9-2-5.8-2.9-8.7
	c-1-2.9-1.9-5.8-2.9-8.9c0.5,0.2,0.7,0.3,0.9,0.4c0-0.3-0.2-0.5-0.3-0.8c-0.3-0.8-0.8-1.5-0.8-2.3c0.1-1.2,1.2-2.3,0.5-3.6
	c-0.1-0.2,0-0.4,0-0.6c0-1.4,0.1-2.7,0-4.1c-0.1-1-0.2-2.1-0.5-3c-0.6-1.6-1.2-3.2-2.2-4.7c-1-1.5-1.7-3.1-2.5-4.7
	c-0.5-0.9-1.1-1.8-1.6-2.8c-0.9-1.7-1.9-3.3-3.8-4.1c-0.6-0.2-1.2-0.3-1.7-0.7c-1.2-0.8-2.4-1.7-3.6-2.6c0.4-0.7,0.3-1.4-0.4-2
	c-0.4-0.3-0.5-0.7-0.3-1.2c0.1-0.2,0.2-0.5,0.3-0.7c0.4-0.9,0.2-1.6-0.6-2.2c-0.2-0.1-0.4-0.3-0.4-0.5c-0.6-2-1.8-3.4-4-3.9
	c-1.7-0.4-4.5,0.7-5,2.3c-0.4,1.3-1.2,2.7-0.4,4.2c0.1,0.1,0,0.3,0,0.4c-0.4,1.4,0.4,2.3,1.2,3.2c0.4,0.4,0.8,0.7,0.5,1.3
	c-0.2,0.5-0.5,0.9-0.8,1.3c-0.1,0.2-0.3,0.3-0.4,0.4c-0.1,0-0.3-0.1-0.4-0.3c-0.3-0.6-0.6-1.2-0.9-1.8c-0.3-0.5-0.5-0.7-1-0.2
	c-0.6,0.6-1.3,0.9-2.2,0.8c-1.1-0.2-2,0.4-2.9,0.8c-0.2,0.1-0.4,0.2-0.6,0.4c0-0.3-0.1-0.6,0-0.8c0.6-2.5,0.1-4.7-1.5-6.7
	c-0.4-0.6-0.4-1.3,0.3-1.5c0.8-0.3,0.7-0.8,0.3-1.3c0.6-0.4,1.4-0.4,1.2-1.4c0-0.1,0.2-0.3,0.3-0.3c0.7-0.2,0.7-0.6,0.5-1.1
	c-0.2-0.4-0.3-0.8-0.4-1.2c0-0.2,0-0.5,0.1-0.6c0.4-0.3,0.4-0.7,0.4-1.2c-0.1-0.5,0-1,0-1.5c0-0.8,0.1-1.7-0.2-2.4
	c-0.8-2.1-2.6-3.2-4.6-3.9c-0.7-0.2-1.5-0.7-2.4-0.2c-0.9,0.5-1.9,0.7-3,1c-0.2-0.5-0.5-1.1-0.7-1.5c-0.7-0.1-1.3-0.2-1.7-0.3
	c-0.4,0.3-0.7,0.6-0.8,0.5c-0.6-0.4-0.9,0.2-1.3,0.4c-0.4,0.2-0.6,0.5-1,0.8c0.2,1.1,0.4,2.4,0.6,3.6c0,0,0,0.1,0.1,0.1
	c0.6,0.5,0.5,1.1,0.2,1.9c0.6-0.2,1-0.4,1.5-0.6c0.3,1.2,0.5,2.4,0.8,3.8c-2.7,0.1-5.1,0.2-7.5,0.3c0-0.1,0-0.2-0.1-0.3
	c1-0.9,2.5-1.2,3.7-1.9c-0.2-0.1-0.4-0.3-0.6-0.2c-1.1,0.3-2.2,0.5-3.2,0.8c-0.9,0.3-1.2,0.3-1.4-0.6c-0.1-0.4,0-0.8,0.1-1.2
	c0-0.3,0-0.7,0-1c-0.7,0.8-0.7,0.7-1.7,0.9c-0.4,0.1-0.8,0.3-1.1,0.5c-0.7,0.6-1,1.7-2.1,1.8c-0.1,0-0.2,0.2-0.3,0.2
	c-0.3,0.2-0.7,0.4-1,0.6c-1.1,0.6-2.6,0.5-3.4,1.6c0,0.1-0.1,0.1-0.2,0.1c-1.2-0.3-2.5,1-3.7-0.2c-0.2-0.2-0.3-0.4-0.5-0.6
	c-0.4-0.4-0.6-0.9-1.1-1.3c-0.7-0.5-1.4-0.8-2.3-1.3c0.3-0.2,0.6-0.5,0.9-0.6c0.6-0.3,1.2-0.5,1.8-0.7c0.6-0.2,1-0.8,0.7-1.4
	c-0.5-0.8,0.3-1.6,0-2.4c-0.1-0.3-0.1-0.7-0.3-1c-0.3-0.4-0.4-0.6,0-0.9c0.1-0.1,0.2-0.3,0.4-0.5c-0.6-0.4-1.2-0.8-1.8-1.3
	c-0.4-0.3-0.8-0.7-0.5-1.3c0.1-0.2,0-0.5-0.1-0.7c-0.3-0.5-0.5-1-0.9-1.3c-0.8-0.8-1.6-1.8-2.6-2.2c-1.2-0.5-2.6-0.6-3.9,0
	c-0.5,0.2-1,0.5-1.6,0.6c-1,0.1-1.6,0.8-2.3,1.3c-1.2,1-1.8,2.4-1.8,4c0,1.3,0,2.6,1,3.7c0.2,0.2,0.1,0.7,0.2,1
	c-1.4,0.1-2.4,0.4-3,1.6c-0.4,0.7-0.8,1.4-1.2,2c-0.4,0.6-0.9,0.9-1.7,0.9c-1,0-2,0.3-2.6,1.1c-0.6,0.7-1.1,1.6-1.4,2.4
	c-0.3,1-0.7,1.6-1.9,1.7c-2.2,0.2-4.4,0.6-6.6-0.3c-0.2-0.1-0.5,0-0.8-0.1c-0.6-0.3-1.4-0.5-1.7-1c-0.5-0.8-0.6-1.7-0.9-2.6
	c-0.1-0.6-0.3-1.2-0.2-1.8c0.1-0.4,0.1-0.8-0.3-0.9c-0.2-0.1-0.5,0.4-0.7,0.6c-0.3,0.3-0.6,0.8-0.9,1.1c-0.3,0.3-0.8,0.4-1.1,0.7
	c-0.4,0.3-0.6,0.3-0.8-0.3c-0.1-0.4-0.4-0.8-0.7-1.4c-0.2,0.4-0.3,0.7-0.4,0.9c-0.1,0.6-0.4,1.2-0.1,1.9c0.3,0.5,0,1-0.6,0.9
	c-0.6,0-1,0-1.1,0.7c0,0.1-0.3,0.2-0.3,0.4c-0.4,0.7-0.8,1.5-1.1,2.2c-0.1,0.2,0.4,0.5,0.6,0.7c0.1,0.1,0.1,0.3,0.1,0.5
	c-0.1,0.4-0.1,0.8-0.2,1.2c-0.2,0.6,0,0.8,0.5,0.8c0.4,0,0.8,0.1,1.3,0.1c-0.2,0.3-0.2,0.4-0.3,0.6c-0.2,0.4-0.1,0.6,0.3,0.6
	c1,0.1,2,0.1,3,0.3c1.2,0.2,2.3,0.3,3.3,1.1c1.3,1,2.9,1.1,4.5,1.2c0.6,0,1.1,0.2,1.5,0.7c0.2,0.2,0.6,0.4,1,0.4
	c1.5-0.1,3-0.3,4.5-0.4c0.7-0.1,1.5-0.1,2,0.7c0.7,1,1.4,1.9,2.2,2.8c0.5,0.6,0.7,1.2,0.7,1.9c0,0.7,0,1.5,0,2.2c0,1.6,0,3.3,0,4.9
	c0,0.7-0.1,1.3-0.2,2c-0.4,1.4-1,2.7-1.4,4.1c-0.5,1.7-0.8,3.4-1.2,5.2c-0.3,1.4-0.5,2.8-0.7,4.1c-0.3,1.8-0.6,3.5-0.9,5.3
	c-0.3,1.9-0.5,3.9-0.8,5.9c-0.1,0.7,0.1,1.2,0.7,1.5c1.6,0.6,3.2,1.3,4.8,1.9c0.8,0.3,1.9,0.2,1.7,1.6c0,0.1,0.1,0.1,0.1,0.2
	c0.6,1.2,0.6,2.4,0.1,3.7c-0.3,1.1-0.8,2.3,0.2,3.3c0.1,0.1,0,0.3-0.1,0.5c-0.6,1-0.6,2.2-0.6,3.3c0,1.9,0,3.9-0.2,5.8
	c-0.1,2.5-0.4,4.9-0.6,7.3c-0.1,1.2,0,2.4,0,3.6c0,0.3,0.1,0.6,0.2,0.9c0.4,1.1,0.6,2.1-0.4,3c-0.3,0.3-0.3,0.9-0.5,1.4
	c-0.1,0.2,0,0.5-0.1,0.7c-0.3,0.8-0.2,1.6,0,2.3H9.5l86.9,63.1L63.1,292.2l86.9-63.1l86.9,63.1l-33.2-102.1L290.5,127z M154.7,120.2
	c0.1-0.1,0.2-0.2,0.2-0.3c-0.3-1.7,0.9-2.7,1.5-4.1c0.2-0.5,0.3-1,0.6-1.5c1.1-2.3,2.2-4.5,3.3-6.8c0.3-0.6,1-1.2,0.5-2
	c0,0,0.4-0.3,0.6-0.5c0.2-0.2,0.6-0.3,0.7-0.6c0.4-0.9,0.8-1.9,1.2-2.8c0.1-0.1,0.2-0.3,0.2-0.4c-0.1-0.8,0.5-0.9,1-1.1
	c1.1-0.3,2.3-0.7,3.5-0.9c0.3-0.1,0.9,0.1,1.1,0.4c0.2,0.3,0.8,0.7,0.3,1.3c-0.2,0.2-0.1,0.6-0.1,1c0,0-0.1,0.1-0.2,0.1
	c-1.1-0.3-1.4,0.3-1.8,1.2c-1.1,2.8-2.5,5.5-3.5,8.3c-0.5,1.4-0.7,2.9-0.8,4.3c-0.1,1.5-0.6,2.7-1.1,4c-0.8,2.2-1.7,4.3-1.5,6.7
	c0,0.3-0.1,0.5-0.2,0.5h-0.1c-0.1,0-0.2-0.1-0.3-0.1c-0.2-0.1-0.4-0.2-0.7-0.2c-2.2-0.4-3.3-2-4.3-3.7
	C154,122.1,154.2,121.1,154.7,120.2z M129.4,119.2c0.2-0.4,0.8-0.7,1.1-1.1c0.2-0.4,0.3-1,0.3-1.5c0.1-1.5,0.2-3,0.4-4.5
	c0.1-1.3,0.4-2.7,0.6-4c0.2-1.2,0.5-2.4,0.6-3.7c0.1-0.8,0.3-1.8-0.1-2.4c-0.5-0.8-0.3-1.1,0.2-1.6c0.1-0.1,0.2-0.3,0.2-0.5
	c0.1-1.2,0.7-2.2,0.6-3.4c-0.1-1.5,0.1-2.9,0.5-4.4c0.3-1,0.4-2,0.5-3.1c0.1-0.9,0.3-1.7,0.4-2.6c0.2-1.1,0.3-2.3,0.5-3.4
	c0.1-1,0.4-2,0.5-3c0.1-1.4,0.1-2.8,0.3-4.2c0.1-1.1,0.3-2.1,0.4-3.2c0-0.2-0.1-0.4-0.2-0.7c-0.3-1-0.2-1.5,0.7-2
	c0.4-0.2,0.6-0.5,0.3-0.9c-0.4-0.5-0.4-1.1-0.3-1.7c0.1-0.4,0.1-0.8,0.1-1.1c0.1-2.9,0.2-5.7,0.3-8.6c0-0.1,0-0.1,0-0.2
	c0.1-0.5,0.4-0.7,0.8-0.4c0.4,0.3,0.6,0.2,1,0c0.5-0.3,0.9,0,1,0.5c0.1,0.6,0.2,1.1,0.3,1.7c0.3,1.6,0.7,3.2,1,4.8
	c0.4,2,1.1,4,2.1,5.8c0.7,1.3,1.4,2.6,2.2,3.8c0.2,0.4,0.6,0.6,0.5,1.2c-0.1,0.8-0.3,1.6-0.4,2.3c-0.1,0.5-0.1,1-0.4,1.4
	c-0.9,1.4-1.7,3-3.1,4c-0.1,0-0.1,0.2-0.1,0.3c0.1,0,0.2,0.1,0.3,0.1c0.3,0,0.6,0,0.8,0c0.6,0,0.9,0.4,0.8,0.9
	c-0.5,2.5-1.1,5-1.6,7.4c-0.1,0.6-0.1,1.2-0.2,1.8c-0.2,1.5-0.3,3-0.5,4.5c-0.1,1.1-0.2,2.2-0.3,3.4c0,0.1-0.1,0.3-0.2,0.4
	c-0.3,0.7-0.2,1,0.5,1.1c0.9,0.1,1.9,0.2,2.8,0.2c1.5,0,3,0,4.4,0c0.3,0,0.6,0,0.9-0.1c1-0.5,2-0.1,3.2,0c-0.4,0.8-0.7,1.5-1,2.1
	c-0.7,2-1.4,4-2,6c-0.3,1.1-0.5,2.2-0.7,3.4c-0.4,1.9-0.6,3.9-1.7,5.6c-0.1,0.1-0.1,0.3-0.1,0.5c-0.1,1.3-0.2,2.6-0.3,3.9
	c-0.1,1,0,1.9-0.1,2.9h-11.2c-0.1-0.2-0.3-0.4-0.7-0.5c-0.8-0.2-1.5-0.4-2.3-0.7c-1.8-0.8-3.4-1.9-3.7-4.1c-0.1-0.4-0.2-0.8-0.2-1.1
	C129.4,120.1,129.3,119.5,129.4,119.2z M125.4,98.7c0.2,0.8,0,1.5-0.3,2.2c-0.4,1-0.7,2-0.9,3c-0.4,1.8-0.7,3.6-0.9,5.4
	c-0.2,1.7-0.1,3.4-0.1,5.1c0,1.3,0,2.7,0,4c0,0.6,0.6,1.3,0.4,1.8c-0.2,0.6-0.5,1.1-0.4,1.8c0,0.4,0,0.8-0.1,1.1
	c0,0.2-0.1,0.3-0.3,0.4c0,0-0.3-0.1-0.4-0.2c-0.8-0.8-1.1-1.8-1.3-2.8c-0.1-0.6-0.1-1.3,0-1.9c0-0.8-0.2-1.5-0.7-2.1
	c-0.1-0.2-0.3-0.4-0.3-0.7c0-1.7,0.1-3.5,0.1-5.2c-0.1-3.7-0.2-7.5-0.3-11.2c0-0.4,0.3-0.8,0.5-1.3c0-0.1-0.2-0.3-0.3-0.5
	c0.7-0.5,0.9-1.1,0.9-1.9c0-0.3,0.1-0.6,0.3-0.9c0.7-1.2,0.9-2.6,0.5-3.9c0.9-0.5,1.8-0.2,2.1,0.8c0.2,0.5,0.4,0.9,0.5,1.4
	c0.1,0.3,0.1,0.6,0,0.8c-0.3,0.5-0.2,0.9,0.1,1.3c0.5,0.6,0.8,1.2,0.4,2C124.9,97.6,125.2,98.2,125.4,98.7z M120.4,36
	c0.4,0,0.8,0.1,1.2,0c0.2-0.1,0.4-0.3,0.7-0.5c-0.2-0.1-0.4-0.3-0.6-0.4c-0.2-0.1-0.4-0.2-0.6-0.3c0.2-0.1,0.4-0.2,0.6-0.2
	c1.1-0.1,2.1-0.2,3.4-0.3c-0.1,0.4-0.2,0.7-0.4,0.9c-0.3,0.5-0.6,0.9-1,1.4c-0.1,0.1-0.3,0.3-0.4,0.3c-0.7-0.6-1.6-0.1-2.4-0.3
	c-0.2-0.1-0.5-0.2-0.7-0.2C120.4,36.3,120.4,36.1,120.4,36z M109.4,41.9c0.7-0.4,1.6-0.7,2.2-1.3c1.3-1.2,3.1-1.4,4.5-2.4
	c0.3-0.2,1.1,0.2,1.7,0.3c0.2,0.1,0.4,0.2,0.7,0.4c0.4-0.5,0.7-1,1-1.5c0.1-0.1,0.2-0.2,0.4-0.2c0.9,0,1.8,0,2.6,0
	c0,0.1,0.1,0.1,0.1,0.2c-0.5,0.3-1,0.7-1.5,1c-2.6,1.4-4.4,3.5-5.6,6.1c-0.4,0.9-0.8,1.9-1.1,2.8c-0.1,0.3,0,0.6,0,1
	c0,0.4,0.1,0.9,0.1,1.3c-0.1,2.1-0.2,4.1-0.2,6.2c0,1.3,0.1,2.5,0.1,3.8c0,1.4,0.1,2.9,0.1,4.3c0,0.6-0.1,1.3-0.3,1.9
	c-0.4,1.2-0.8,2.3-1.2,3.5c-0.1,0-0.2,0-0.2,0c-0.1-0.2-0.2-0.5-0.3-0.7c-0.4-1.9-0.7-3.8-1.1-5.7c-0.3-1.3-0.7-2.5-1-3.7
	c-0.4-1.6-0.7-3.2-1.1-4.8c-0.1-0.3-0.2-0.6-0.3-0.9c-0.1-1.7-0.2-3.4-0.3-5.2c-0.1-1.4-0.2-2.9-0.3-4.3
	C108.2,42.7,108.3,42.6,109.4,41.9z M106.3,126.2c-1.3-0.1-2.4-0.5-3.5-0.9c-1.7-0.7-3.3-1.6-4.7-2.8c-0.3-0.2-0.7-0.5-0.7-0.9
	c-0.4-1.5-0.9-3-0.2-4.6c0.1-0.2,0.1-0.4,0.1-0.6c-0.1-1.1-0.2-2.1-0.2-3.2c0-1,0-2,0.1-3c0.2-1.4,0.5-2.7,0.7-4
	c0.2-1.2,0.5-2.4,0.6-3.7c0.1-0.6,0.6-1.3-0.2-1.8c0.1-0.2,0.2-0.3,0.2-0.4c0.2-0.9,0.6-1.6,1.8-1.2c0.1,0,0.3-0.3,0.4-0.5
	c0.2-0.4,0.4-0.9,0.5-1.4c0.1-0.2,0.4-0.5,0.3-0.7c-0.3-0.8,0.4-1.3,0.5-2c0-0.3,0.2-0.5,0.2-0.8c0.1-0.9,0.2-1.7,0.4-2.6
	c0.4-2.2,0.8-4.3,1.2-6.4c0.1-0.3,0.4-0.7,0.7-0.8c1.2-0.2,2.4-0.2,3.6-0.3c0.7-0.1,0.8,0.3,0.7,0.8c-0.4,1.9-0.8,3.8-1.2,5.7
	c-0.2,1-0.6,1.9-0.9,2.9c-0.3,0.7-0.1,1.1,0.7,1.4c1.5,0.6,3,1.3,4.5,1.9c0.5,0.2,1,0.3,1.4,0.4c0,0.5-0.1,1-0.1,1.5
	c0,0.3,0,0.6-0.1,0.9c0,0.1-0.2,0.4-0.3,0.4c-0.9,0-0.8,0.7-0.8,1.2c0.1,2.6,0.3,5.3,0.5,7.9c0,0.5,0,1.1,0.1,1.6
	c0.2,1.3,0.5,2.6,0.7,4c0.2,1.4,0.4,2.9,0.7,4.3c0.1,0.4,0.2,0.9,0.5,1.2c0.4,0.4,0.4,0.9,0.4,1.4c-0.1,0.7-0.2,1.3-0.4,2
	c-0.3,1.3,0,2.6,0.3,3.9h-7.4C107.2,126.6,106.9,126.3,106.3,126.2z"/>
<g>
	<path class="st0" d="M37.4,157c0-0.5-0.2-1-0.6-1.4c-0.4-0.4-0.8-0.6-1.3-0.6h-6.2v19.5c0,0.6,0.2,1,0.6,1.4
		c0.4,0.4,0.9,0.6,1.5,0.6h0.4v0.3h-7.1v-0.3h0.4c0.6,0,1-0.2,1.5-0.6c0.4-0.4,0.6-0.9,0.6-1.4V155H21c-0.5,0-1,0.2-1.3,0.6
		c-0.4,0.4-0.5,0.8-0.5,1.4v0.6l-0.3,0v-4.1c0.3,0.1,0.9,0.3,1.7,0.4c0.8,0.1,1.5,0.2,2.2,0.2h11c1.1,0,2-0.1,2.7-0.2
		c0.7-0.2,1.1-0.3,1.3-0.3v4.1l-0.3,0V157z"/>
	<path class="st0" d="M57.1,176.6h0.3v0.3h-6.7v-0.3h0.3c0.4,0,0.7-0.1,0.9-0.4c0.2-0.3,0.3-0.5,0.3-0.8c0-0.3,0-0.5-0.1-0.7
		l-1.8-4.3H42l-1.8,4.2c-0.1,0.3-0.2,0.5-0.2,0.8c0,0.3,0.1,0.5,0.3,0.8c0.2,0.3,0.5,0.4,1,0.4h0.3v0.3h-6.2v-0.3h0.3
		c0.5,0,0.9-0.2,1.4-0.5c0.5-0.3,0.9-0.8,1.2-1.4c4.8-10.2,7.2-15.5,7.4-16c0.4-0.9,0.6-1.5,0.6-1.8h0.3l8.1,17.8
		C55.2,175.9,56.1,176.6,57.1,176.6z M42.5,169.3h7.4l-3.7-8.9L42.5,169.3z"/>
	<path class="st0" d="M65.3,176.6h0.4v0.3H59v-0.3h0.4c0.5,0,1-0.2,1.3-0.5c0.4-0.3,0.6-0.8,0.6-1.2v-15.4c0-0.5-0.2-0.9-0.6-1.2
		c-0.4-0.3-0.8-0.5-1.3-0.5H59v-0.3h6.7v0.3h-0.4c-0.7,0-1.2,0.3-1.6,0.8c-0.2,0.3-0.3,0.6-0.3,0.9v15.5c0,0.5,0.2,0.9,0.6,1.2
		C64.4,176.4,64.8,176.6,65.3,176.6z M77.7,176.9h-1.2c-2.1,0-3.7-0.6-4.8-1.9l-7.2-7.9l7-8.2c0.2-0.3,0.3-0.6,0.1-0.9
		c-0.2-0.3-0.4-0.4-0.8-0.4h-0.3v-0.3h6.7v0.3h-0.1c-1.3,0-2.4,0.4-3.2,1.2l-7.1,7.6l8.1,8.8c0.4,0.5,0.8,0.8,1.2,1
		c0.4,0.2,1,0.3,1.6,0.3V176.9z"/>
	<path class="st0" d="M79.8,176.6c0.5,0,1-0.2,1.3-0.5c0.4-0.3,0.5-0.7,0.6-1.2v-15.5c0-0.5-0.2-0.9-0.6-1.2
		c-0.4-0.3-0.8-0.5-1.3-0.5h-0.5v-0.3h9.5c0.9,0,1.7-0.1,2.3-0.2c0.7-0.1,1.1-0.2,1.3-0.3v3.7l-0.4,0V160c0-0.5-0.2-0.8-0.5-1.2
		c-0.3-0.3-0.7-0.5-1.2-0.5h-6.8v8.3h5.6c0.4,0,0.8-0.1,1-0.4c0.2-0.3,0.3-0.6,0.3-1v-0.4H91v4.6h-0.4V169c0-0.6-0.2-1-0.7-1.2
		c-0.2-0.1-0.4-0.1-0.6-0.1h-5.7v8.3h5.1c1,0,1.8-0.2,2.5-0.5c0.7-0.3,1.2-0.8,1.6-1.2c0.4-0.5,0.7-1.1,1.1-1.9h0.3l-1.8,4.7H79.4
		v-0.3H79.8z"/>
	<path class="st0" d="M124.5,157.6h-0.4c-0.6,0-1.1,0.2-1.7,0.5c-0.5,0.3-1,0.7-1.3,1.2l-6.3,9.5v6c0,0.5,0.2,0.9,0.6,1.2
		c0.4,0.3,0.8,0.5,1.3,0.5h0.4v0.3h-6.7v-0.3h0.4c0.5,0,1-0.2,1.3-0.5c0.4-0.3,0.6-0.8,0.6-1.2v-6l-6-9.5c-0.7-1.1-1.7-1.6-3-1.6
		h-0.4v-0.3h7.6v0.3h-0.4c-0.4,0-0.7,0.1-0.9,0.4c-0.2,0.3-0.3,0.5-0.3,0.7c0,0.2,0,0.4,0.1,0.5l4.8,8.4l5.1-8.4
		c0.1-0.2,0.1-0.4,0.1-0.5c0-0.2-0.1-0.4-0.3-0.7c-0.2-0.3-0.5-0.4-0.9-0.4h-0.4v-0.3h6.8V157.6z"/>
	<path class="st0" d="M130.4,158.1c1.7-0.9,3.5-1.3,5.5-1.3s3.9,0.4,5.5,1.3c1.7,0.9,3,2.1,4,3.6c1,1.6,1.5,3.3,1.5,5.3
		c0,2-0.5,3.7-1.5,5.3c-1,1.6-2.3,2.8-4,3.6c-1.7,0.9-3.4,1.3-5.2,1.3s-3.3-0.2-4.7-0.7c-1.3-0.5-2.5-1.2-3.5-2.1
		c-1-0.9-1.8-2-2.3-3.3c-0.6-1.3-0.9-2.8-0.9-4.5c0-1.7,0.5-3.4,1.5-4.9C127.3,160.2,128.7,159,130.4,158.1z M129.7,173.8
		c1.6,1.7,3.7,2.6,6.1,2.6c2.4,0,4.5-0.9,6.1-2.6s2.5-4,2.5-6.7c0-2.7-0.8-4.9-2.5-6.7c-1.7-1.7-3.7-2.6-6.1-2.6
		c-2.4,0-4.5,0.9-6.1,2.6c-1.6,1.7-2.5,4-2.5,6.7C127.3,169.8,128.1,172,129.7,173.8z"/>
	<path class="st0" d="M169.8,157.6h-0.5c-0.6,0-1,0.2-1.3,0.7c-0.1,0.2-0.2,0.4-0.2,0.7v11c0,2.3-0.7,4-2.2,5.4c-1.4,1.3-3.4,2-6,2
		c-2.5,0-4.5-0.7-6-2c-1.5-1.3-2.2-3.1-2.2-5.3v-11c0-0.4-0.2-0.7-0.5-1c-0.3-0.3-0.7-0.4-1.1-0.4h-0.5v-0.3h6.2v0.3h-0.5
		c-0.4,0-0.8,0.1-1.1,0.4c-0.3,0.3-0.5,0.6-0.5,1v10.6c0,2.1,0.5,3.8,1.6,5c1.1,1.2,2.6,1.8,4.6,1.8s3.5-0.6,4.7-1.7
		c1.2-1.2,1.8-2.7,1.8-4.7v-11c0-0.4-0.2-0.7-0.5-1c-0.3-0.3-0.7-0.4-1.1-0.4h-0.5v-0.3h5.6V157.6z"/>
	<path class="st0" d="M178.9,158.3h-1.7v16.5c0,0.7,0.3,1.2,0.9,1.5c0.3,0.2,0.6,0.2,0.9,0.2h0.4l0,0.3h-6.7v-0.3h0.5
		c0.5,0,0.9-0.2,1.3-0.5c0.4-0.3,0.5-0.7,0.5-1.2v-15.5c0-0.5-0.2-0.9-0.5-1.2c-0.4-0.3-0.8-0.5-1.3-0.5h-0.5v-0.3h8.2
		c2,0,3.7,0.5,4.8,1.4c1.2,0.9,1.8,2.2,1.8,3.7c0,1.5-0.5,2.8-1.4,3.8c-1,1-2.2,1.6-3.7,1.8c0.7,0.3,1.5,1.2,2.5,2.5
		c0,0,0.4,0.5,1.1,1.4c0.8,1,1.4,1.7,1.9,2.2c0.5,0.5,0.9,0.9,1.2,1.2c0.8,0.8,1.7,1.1,2.8,1.1v0.3h-1c-1.7,0-3.1-0.3-4-1
		c-0.7-0.5-1.4-1.1-2-1.9c-0.1-0.2-0.7-0.9-1.6-2.3c-1-1.4-1.5-2.1-1.5-2.2c-1.2-1.5-2.3-2.2-3.3-2.2V167c2.5,0,4.1-0.1,4.6-0.4
		c0.7-0.4,1.2-0.8,1.5-1.2c0.5-0.9,0.8-1.8,0.8-2.9c0-1.3-0.4-2.3-1.2-3.1c-0.8-0.7-1.8-1.1-3.2-1.2
		C180.3,158.3,179.6,158.3,178.9,158.3z"/>
	<path class="st0" d="M201.5,175.8c-0.1-0.3-0.1-0.8-0.1-1.6s0.1-1.6,0.4-2.4h0.4c0,0.2,0,0.4,0,0.6c0,1.2,0.4,2.1,1.2,2.9
		c0.8,0.7,1.8,1.1,3.2,1.1c1.4,0,2.6-0.3,3.4-1c0.8-0.7,1.2-1.5,1.2-2.6s-0.4-1.9-1.2-2.6l-6.5-5c-1-0.9-1.6-2.1-1.6-3.6
		c0-0.8,0.2-1.6,0.7-2.3c0.5-0.7,1.1-1.3,2-1.7c0.8-0.4,1.8-0.6,3-0.6c1.1,0,2.1,0.1,3,0.3h1.1l0.1,3.6h-0.4c0-0.9-0.3-1.6-0.9-2.1
		c-0.6-0.5-1.5-0.7-2.7-0.7c-1.2,0-2.1,0.3-2.9,0.9c-0.8,0.6-1.1,1.4-1.1,2.3c0,0.9,0.4,1.8,1.3,2.5l6.6,5.1c1,0.8,1.5,2,1.5,3.5
		c0,1.5-0.6,2.7-1.7,3.7s-2.5,1.5-4.1,1.5c-1.1,0-2.1-0.1-3.2-0.4C202.9,176.7,202,176.3,201.5,175.8z"/>
	<path class="st0" d="M231,176.6c0.5,0,0.9-0.2,1.3-0.5c0.4-0.3,0.6-0.7,0.6-1.2v-7.1h-12v7.1c0,0.5,0.2,0.9,0.6,1.2
		c0.4,0.3,0.8,0.5,1.3,0.5h0.4v0.3h-6.7v-0.3h0.4c0.5,0,1-0.2,1.3-0.5c0.4-0.3,0.5-0.8,0.6-1.2v-15.4c0-0.5-0.2-0.9-0.6-1.2
		c-0.4-0.3-0.8-0.5-1.3-0.5h-0.4v-0.3h6.7v0.3h-0.4c-0.5,0-0.9,0.2-1.3,0.5c-0.4,0.3-0.6,0.7-0.6,1.2v7.4h12v-7.3
		c0-0.5-0.1-0.8-0.4-1.1c-0.5-0.4-0.9-0.7-1.5-0.7h-0.4v-0.3h6.7v0.3h-0.4c-0.5,0-0.9,0.2-1.3,0.5c-0.4,0.3-0.6,0.7-0.6,1.2v15.5
		c0,0.5,0.2,0.8,0.4,1.1c0.5,0.4,1,0.7,1.5,0.7h0.4v0.3h-6.7v-0.3H231z"/>
	<path class="st0" d="M245.6,158.1c1.7-0.9,3.5-1.3,5.5-1.3s3.9,0.4,5.5,1.3c1.7,0.9,3,2.1,4,3.6c1,1.6,1.5,3.3,1.5,5.3
		c0,2-0.5,3.7-1.5,5.3c-1,1.6-2.3,2.8-4,3.6c-1.7,0.9-3.4,1.3-5.2,1.3c-1.8,0-3.3-0.2-4.7-0.7c-1.3-0.5-2.5-1.2-3.5-2.1
		c-1-0.9-1.8-2-2.3-3.3c-0.6-1.3-0.9-2.8-0.9-4.5c0-1.7,0.5-3.4,1.5-4.9C242.6,160.2,243.9,159,245.6,158.1z M245,173.8
		c1.6,1.7,3.7,2.6,6.1,2.6c2.4,0,4.5-0.9,6.1-2.6c1.7-1.7,2.5-4,2.5-6.7c0-2.7-0.8-4.9-2.5-6.7c-1.7-1.7-3.7-2.6-6.1-2.6
		c-2.4,0-4.5,0.9-6.1,2.6c-1.6,1.7-2.5,4-2.5,6.7C242.5,169.8,243.4,172,245,173.8z"/>
	<path class="st0" d="M273.3,158.3v16.6c0,0.7,0.3,1.2,1,1.5c0.3,0.2,0.6,0.2,0.9,0.2h0.4v0.3h-6.7v-0.3h0.4c0.5,0,1-0.2,1.3-0.5
		c0.4-0.3,0.6-0.8,0.6-1.2v-16.5h-5.9c-0.5,0-0.9,0.2-1.2,0.5c-0.3,0.3-0.4,0.7-0.4,1.2v0.5h-0.4v-3.7c0.4,0.2,1,0.3,1.8,0.4
		c0.8,0.1,1.4,0.1,1.8,0.1h10.6c1.6,0,2.8-0.2,3.7-0.5v3.7h-0.4v-0.5c0-0.5-0.2-0.8-0.5-1.2c-0.3-0.3-0.7-0.5-1.2-0.5H273.3z"/>
</g>
</svg>
